<svg version="1.1" viewBox="0.0 0.0 480.0 480.0" fill="none" stroke="none" stroke-linecap="square" stroke-miterlimit="10" xmlns:xlink="http://www.w3.org/1999/xlink" xmlns="http://www.w3.org/2000/svg"><clipPath id="p.0"><path d="m0 0l480.0 0l0 480.0l-480.0 0l0 -480.0z" clip-rule="nonzero"/></clipPath><g clip-path="url(#p.0)"><path fill="#ffffff" fill-opacity="0.0" d="m0 0l480.0 0l0 480.0l-480.0 0z" fill-rule="evenodd"/><path fill="#ff6687" d="m297.21597 69.74361c32.928406 0 57.531403 6.106804 73.80905 18.320404c7.7404785 5.783394 15.0590515 13.384705 21.95578 22.80391l0 0c3.0517578E-5 2.2888184E-5 3.0517578E-5 3.8146973E-5 6.1035156E-5 6.1035156E-5l-3.0517578E-5 0c0 -2.2888184E-5 -3.0517578E-5 -3.8146973E-5 -3.0517578E-5 -6.1035156E-5l0 0c-24.417023 -24.068832 -59.489197 -37.77694 -105.21646 -41.124313zm-203.51706 -0.46380615c11.007233 0 31.902298 0.077301025 62.685226 0.23190308c0.020141602 1.0681152E-4 0.040283203 2.0599365E-4 0.060424805 3.0517578E-4l0 0l-29.094322 0.9273071c-8.068855 0 -16.254318 4.4061737 -24.556374 13.218521c-8.255417 8.812347 -15.204887 17.701996 -20.848434 26.668945c-0.27939606 0.44138336 -0.5617676 0.88983154 -0.8470993 1.3453598l0 0c0.025779724 -0.06175232 0.051620483 -0.12369537 0.07752991 -0.18583679c2.7984467 -6.647911 4.827324 -12.033234 6.086624 -16.155968c1.2593002 -4.1742706 2.611885 -9.250389 4.057747 -15.228355c1.4925079 -5.977974 2.2854004 -9.585365 2.3786774 -10.822182zm-12.600578 42.39234c0 0 0 0 0 0l0 0c0 0 0 0 0 0zm126.33744 -41.954712c6.876419 0.017448425 12.876434 0.026176453 18.000046 0.026176453l9.240311 0c-1.5427704 42.917633 -2.3141632 93.781876 -2.3141632 152.59274c0 46.896133 0.6996155 96.05974 2.0988464 147.49086c0.26271057 11.466064 12.179062 19.674774 35.749054 24.626038l0 0c3.0517578E-5 0 3.0517578E-5 0 3.0517578E-5 0l-3.0517578E-5 0c0 0 0 0 0 0l0 0c-14.228577 -0.33868408 -29.15326 -0.5080261 -44.774048 -0.5080261c-15.833923 0 -30.696457 0.15332031 -44.587616 0.45999146l0 0c0 0 0 0 0 0l-9.1552734E-5 0c3.0517578E-5 0 6.1035156E-5 0 9.1552734E-5 0l0 0c17.56279 -5.021332 26.478622 -13.213989 26.747513 -24.578003c1.3992157 -38.392944 2.0988312 -87.55658 2.0988312 -147.49086c0 -46.08264 -0.753006 -96.95561 -2.2590027 -152.61893zm-133.32599 -24.32373c-1.8656387 15.924068 -4.5241623 29.580627 -7.9755783 40.96968c-3.4514084 11.389061 -6.506386 19.866432 -9.164913 25.432129c-2.6118774 5.5141525 -8.441971 17.753517 -17.490292 36.718117c5.177128 11.389038 15.601341 20.510605 31.272644 27.364655c25.79235 -46.07158 64.270996 -72.76629 115.43594 -80.08414c0.97946167 34.940186 1.4691925 77.120926 1.4691925 126.542206c0 59.109695 -0.6996155 108.067215 -2.0988464 146.87245c-0.04663086 1.1853027 -14.6918335 3.401245 -43.935608 6.6479187c-5.1771393 13.811157 -5.1771393 28.60147 0 44.37094c54.662994 -1.2883606 87.56807 -1.9325256 98.71521 -1.9325256c7.3692474 0 35.353714 0.6699219 83.953415 2.0098267c4.384247 -14.944946 4.8273315 -29.73526 1.3292847 -44.37094c-30.223236 -3.2981873 -45.358185 -5.694519 -45.404816 -7.189026c-1.399231 -30.611298 -2.0988464 -79.414215 -2.0988464 -146.40865c0 -52.461807 0.4897461 -95.44133 1.4691772 -128.93854c29.94339 0 55.549194 7.3436203 76.81738 22.030869c21.268219 14.635704 38.26877 34.759804 51.00171 60.372307c17.070526 -6.7509766 28.147705 -15.949829 33.231567 -27.596558c-19.07611 -34.940186 -30.549744 -69.210434 -34.4209 -102.81072z" fill-rule="evenodd"/><path stroke="#595959" stroke-width="1.0" stroke-linejoin="round" stroke-linecap="butt" d="m297.21597 69.74361c32.928406 0 57.531403 6.106804 73.80905 18.320404c7.7404785 5.783394 15.0590515 13.384705 21.95578 22.80391l0 0c3.0517578E-5 2.2888184E-5 3.0517578E-5 3.8146973E-5 6.1035156E-5 6.1035156E-5l-3.0517578E-5 0c0 -2.2888184E-5 -3.0517578E-5 -3.8146973E-5 -3.0517578E-5 -6.1035156E-5l0 0c-24.417023 -24.068832 -59.489197 -37.77694 -105.21646 -41.124313zm-203.51706 -0.46380615c11.007233 0 31.902298 0.077301025 62.685226 0.23190308c0.020141602 1.0681152E-4 0.040283203 2.0599365E-4 0.060424805 3.0517578E-4l0 0l-29.094322 0.9273071c-8.068855 0 -16.254318 4.4061737 -24.556374 13.218521c-8.255417 8.812347 -15.204887 17.701996 -20.848434 26.668945c-0.27939606 0.44138336 -0.5617676 0.88983154 -0.8470993 1.3453598l0 0c0.025779724 -0.06175232 0.051620483 -0.12369537 0.07752991 -0.18583679c2.7984467 -6.647911 4.827324 -12.033234 6.086624 -16.155968c1.2593002 -4.1742706 2.611885 -9.250389 4.057747 -15.228355c1.4925079 -5.977974 2.2854004 -9.585365 2.3786774 -10.822182zm-12.600578 42.39234c0 0 0 0 0 0l0 0c0 0 0 0 0 0zm126.33744 -41.954712c6.876419 0.017448425 12.876434 0.026176453 18.000046 0.026176453l9.240311 0c-1.5427704 42.917633 -2.3141632 93.781876 -2.3141632 152.59274c0 46.896133 0.6996155 96.05974 2.0988464 147.49086c0.26271057 11.466064 12.179062 19.674774 35.749054 24.626038l0 0c3.0517578E-5 0 3.0517578E-5 0 3.0517578E-5 0l-3.0517578E-5 0c0 0 0 0 0 0l0 0c-14.228577 -0.33868408 -29.15326 -0.5080261 -44.774048 -0.5080261c-15.833923 0 -30.696457 0.15332031 -44.587616 0.45999146l0 0c0 0 0 0 0 0l-9.1552734E-5 0c3.0517578E-5 0 6.1035156E-5 0 9.1552734E-5 0l0 0c17.56279 -5.021332 26.478622 -13.213989 26.747513 -24.578003c1.3992157 -38.392944 2.0988312 -87.55658 2.0988312 -147.49086c0 -46.08264 -0.753006 -96.95561 -2.2590027 -152.61893zm-133.32599 -24.32373c-1.8656387 15.924068 -4.5241623 29.580627 -7.9755783 40.96968c-3.4514084 11.389061 -6.506386 19.866432 -9.164913 25.432129c-2.6118774 5.5141525 -8.441971 17.753517 -17.490292 36.718117c5.177128 11.389038 15.601341 20.510605 31.272644 27.364655c25.79235 -46.07158 64.270996 -72.76629 115.43594 -80.08414c0.97946167 34.940186 1.4691925 77.120926 1.4691925 126.542206c0 59.109695 -0.6996155 108.067215 -2.0988464 146.87245c-0.04663086 1.1853027 -14.6918335 3.401245 -43.935608 6.6479187c-5.1771393 13.811157 -5.1771393 28.60147 0 44.37094c54.662994 -1.2883606 87.56807 -1.9325256 98.71521 -1.9325256c7.3692474 0 35.353714 0.6699219 83.953415 2.0098267c4.384247 -14.944946 4.8273315 -29.73526 1.3292847 -44.37094c-30.223236 -3.2981873 -45.358185 -5.694519 -45.404816 -7.189026c-1.399231 -30.611298 -2.0988464 -79.414215 -2.0988464 -146.40865c0 -52.461807 0.4897461 -95.44133 1.4691772 -128.93854c29.94339 0 55.549194 7.3436203 76.81738 22.030869c21.268219 14.635704 38.26877 34.759804 51.00171 60.372307c17.070526 -6.7509766 28.147705 -15.949829 33.231567 -27.596558c-19.07611 -34.940186 -30.549744 -69.210434 -34.4209 -102.81072z" fill-rule="evenodd"/></g></svg>