<svg version="1.1" viewBox="0.0 0.0 480.0 480.0" fill="none" stroke="none" stroke-linecap="square" stroke-miterlimit="10" xmlns:xlink="http://www.w3.org/1999/xlink" xmlns="http://www.w3.org/2000/svg"><clipPath id="p.0"><path d="m0 0l480.0 0l0 480.0l-480.0 0l0 -480.0z" clip-rule="nonzero"/></clipPath><g clip-path="url(#p.0)"><path fill="#ffffff" fill-opacity="0.0" d="m0 0l480.0 0l0 480.0l-480.0 0z" fill-rule="evenodd"/><path fill="#000000" fill-opacity="0.0" d="m-13.795276 18.370079l480.0 0l0 392.09448l-480.0 0z" fill-rule="evenodd"/><path fill="#001f3b" d="m120.35695 219.47945q-0.21875 2.625 -0.96875 6.125q-0.734375 3.484375 -1.796875 6.578125q-1.0625 3.078125 -2.90625 6.75q-1.828125 3.65625 -3.84375 -0.609375q-3.125 2.453125 -3.125 -0.109375q0 -2.5625 0 -4.0q0 -1.4375 0.203125 -2.625q0.203125 -1.203125 0.203125 -1.828125q0.609375 -3.328125 0.8125 -6.078125q0.203125 -2.75 0.59375 -5.8125q0.390625 -3.640625 0.484375 -6.8125q0.09375 -3.1875 -0.5 -6.75q0.65625 -0.265625 -0.453125 -2.625q-1.109375 -2.359375 3.578125 -2.359375q2.015625 0 3.40625 1.578125q1.40625 1.578125 1.796875 2.34375q1.375 2.75 2.15625 6.359375q0.78125 3.609375 0.359375 9.875zm2.28125 -15.65625q3.671875 8.65625 4.40625 16.984375q0.734375 8.3125 -0.40625 16.546875q-1.140625 8.21875 -3.921875 16.25q-2.765625 8.01564 -6.234375 15.54689q-4.640625 10.078125 -9.765625 19.71875q-5.109375 9.625 -9.890625 18.796875q-4.78125 9.171875 -8.8125 17.734375q-4.03125 8.546875 -6.40625 16.84375q-1.59375 4.09375 -4.546875 2.890625q-2.9375 -1.1875 -2.9375 -3.828125q-0.421875 -10.09375 2.90625 -20.171875q3.328125 -10.078125 8.296875 -20.015625q4.96875 -9.953125 10.65625 -19.828125q5.6875 -9.875 10.21875 -19.953125q2.9375 -6.2656403 5.28125 -13.093765q2.34375 -6.828125 3.796875 -14.0q1.453125 -7.171875 1.734375 -14.15625q0.296875 -7.0 -1.03125 -13.59375q-1.84375 -8.203125 3.265625 -3.109375q1.78125 -2.265625 3.390625 0.4375zm-64.671875 79.57814q0 0.71875 -0.1875 4.140625q-0.171875 3.421875 -3.28125 2.21875q-2.640625 2.65625 -3.8125 -0.671875q-1.15625 -3.328125 -1.59375 -4.390625q-0.84375 -2.796875 -1.859375 -6.53125q-1.015625 -3.75 -1.9375 -7.71875q-0.90625 -3.96875 -1.640625 -7.875q-0.71875 -3.921875 -0.921875 -6.7812653q-0.1875 -1.296875 -0.78125 -5.375q-0.578125 -4.078125 -1.578125 -9.625q-0.984375 -5.546875 -2.28125 -11.890625q-1.296875 -6.359375 -2.78125 -12.15625q-1.46875 -5.8125 -2.984375 -10.21875q-1.4999981 -4.421875 -2.828123 -6.25q-2.5625 -3.625 -0.25 -5.828125q2.359375 -2.46875 4.124998 -0.984375q1.78125 1.46875 2.125 1.828125q3.453125 2.578125 6.5625 7.296875q3.109375 4.703125 5.609375 9.90625q2.5 5.203125 4.171875 10.75q1.671875 5.53125 2.296875 9.953125q1.8125 11.921875 2.625 25.218765q0.8125 13.28125 1.203125 24.984375zm6.484379 29.140625q-4.046879 -13.59375 -6.484379 -27.921875q-2.421875 -14.328125 -4.21875 -28.781265q-1.390625 -10.53125 -3.171875 -20.96875q-1.78125 -10.453125 -5.46875 -21.546875q-0.59375 -1.46875 -0.59375 -2.84375q0 -1.375 2.796875 -2.765625q2.4375 0 4.359375 1.921875q4.703125 4.71875 7.75 13.96875q3.046875 9.234375 5.171879 19.265625q2.125 10.015625 3.53125 19.343765q1.40625 9.3125 2.390625 14.828125q1.015625 4.640625 1.71875 9.546875q0.71875 4.890625 -1.984375 10.0625q-1.578125 -6.40625 0.875 -12.234375q2.46875 -5.84375 5.0 -11.296875q2.53125 -5.46875 5.03125 -10.15625q2.5 -4.703125 4.0625 -8.04689q4.265625 -9.140625 9.734375 -18.375q5.484375 -9.234375 10.1875 -15.578125q2.765625 -3.640625 5.765625 -3.640625q2.71875 2.625 2.09375 4.515625q-0.609375 1.890625 -0.984375 2.828125q-4.046875 14.515625 -11.015625 28.25q-6.96875 13.73439 -13.96875 27.562515q-4.015625 7.609375 -7.921875 15.21875q-3.890625 7.59375 -5.796875 16.75q-0.625 3.390625 -3.625 5.546875q-2.984375 2.15625 -5.234375 -5.453125zm11.0625 26.1875q5.9375 3.96875 1.78125 5.25q-4.140625 1.28125 -5.78125 0.203125q-8.171879 -3.78125 -14.125004 -10.46875q-5.953125 -6.703125 -10.015625 -14.8125q-4.0625 -8.125 -6.515625 -17.140625q-2.453125 -9.015625 -4.09375 -17.75q-2.21875 -12.125 -3.421875 -24.15625q-1.203125 -12.04689 -2.703123 -23.468765q-1.484375 -11.4375 -3.453125 -21.734375q-1.953125 -10.3125 -5.40625 -18.75q-0.234375 -0.5 -0.671875 -1.765625q-0.4375 -1.28125 1.296875 -3.078125q2.9375 -2.921875 4.4375 -0.640625q1.5 2.265625 1.671875 2.59375q6.374998 8.625 9.578123 19.71875q3.21875 11.078125 4.84375 23.125q1.625 12.046875 2.703125 24.51564q1.09375 12.453125 3.28125 24.09375q1.375 7.453125 3.71875 15.171875q2.34375 7.703125 5.640625 14.984375q3.296875 7.28125 7.593754 13.484375q4.296875 6.203125 9.640625 10.625zm-5.09375 -0.28125q-1.21875 -1.234375 -3.203125 -3.3125q-1.984375 -2.09375 -3.7812538 -4.578125q-1.390625 -2.296875 -2.859375 -5.734375q-1.453125 -3.453125 -2.609375 -6.8125q-1.140625 -3.359375 -1.953125 -7.34375q-0.796875 -3.984375 2.96875 -5.140625q2.171875 0 3.4375 1.625q1.28125 1.609375 1.9375038 2.921875q0.65625 1.3125 1.140625 2.21875q0.5 0.890625 0.859375 1.265625q1.828125 3.1875 3.078125 5.59375q1.265625 2.40625 2.28125 5.078125q1.046875 2.265625 1.0 4.75q-0.03125 2.484375 -1.09375 -0.453125q1.21875 2.9375 -0.34375 2.0625q-1.546875 -0.890625 -1.65625 -2.296875q-0.09375 -1.421875 -0.203125 -2.78125q-0.09375 -1.359375 -0.09375 -1.984375q-0.421875 -8.046875 1.375 -14.390625q1.796875 -6.359375 4.078125 -11.5625q4.703125 -10.375 10.96875 -20.703125q6.28125 -10.34375 12.90625 -19.65625q0.5 -0.5 2.453125 -2.7812653q1.953125 -2.28125 4.34375 -1.078125q3.234375 1.109375 2.296875 4.2656403q-0.921875 3.15625 -1.140625 3.8125q-0.828125 2.484375 -2.140625 5.734375q-1.3125 3.25 -2.734375 6.796875q-1.40625 3.53125 -2.953125 6.828125q-1.546875 3.28125 -2.765625 5.5q-0.5625 1.125 -2.140625 4.46875q-1.5625 3.328125 -3.546875 8.1875q-1.96875 4.859375 -4.171875 10.421875q-2.1875 5.5625 -4.0625 10.796875q-1.859375 5.21875 -3.0 9.359375q-1.125 4.140625 -1.125 6.3125q0 4.53125 -3.71875 4.53125q-1.90625 0 -3.828125 -1.921875zm102.19064 -140.60939q-2.75 -6.125 2.484375 -6.125q2.0 0 3.21875 1.375q1.21875 1.375 1.578125 1.703125q2.203125 3.296875 4.671875 6.90625q2.46875 3.59375 4.765625 8.640625q2.296875 5.03125 4.171875 11.5625q1.875 6.53125 2.90625 15.375q1.234375 10.09375 0.515625 19.82814q-0.71875 9.71875 -2.421875 19.90625q-0.625 0.21875 -0.75 3.0q-0.109375 2.765625 -3.453125 2.765625q-2.8125 0 -3.578125 -2.859375q-0.75 -2.859375 -0.75 -3.59375q-0.375 -2.0 -0.78125 -5.0625q-0.40625 -3.078125 -0.71875 -6.453125q-0.296875 -3.375 -0.40625 -6.546875q-0.09375 -3.1718903 -0.09375 -5.6093903q0 -0.75 -0.109375 -3.40625q-0.09375 -2.65625 -0.28125 -6.1875q-0.1875 -3.546875 -0.6875 -7.765625q-0.484375 -4.234375 2.0 -8.84375q3.53125 6.203125 3.125 12.53125q-0.40625 6.3125 -1.015625 12.625q-0.59375 6.2968903 -0.984375 12.468765q-0.390625 6.171875 0 12.40625q0.578125 11.96875 4.78125 24.203125q4.203125 12.21875 13.265625 20.71875q6.640625 6.5625 -0.96875 4.265625q-0.6875 2.953125 -3.171875 1.484375q-7.46875 -4.28125 -12.390625 -10.265625q-4.921875 -5.984375 -7.984375 -12.9375q-3.046875 -6.96875 -4.515625 -14.359375q-1.453125 -7.40625 -1.65625 -14.890625q0 -0.34375 -0.109375 -0.84375q-0.09375 -0.5 3.03125 -1.40625q-1.09375 12.5625 -6.03125 23.25q-4.9375 10.671875 -9.640625 20.484375q-4.703125 9.8125 -8.765625 18.421875q-4.0625 8.59375 -6.421875 15.90625q-1.234375 3.0625 -3.546875 3.0625q-3.515625 0 -3.515625 -2.171875q0 -2.15625 0 -2.390625q0.203125 -9.921875 3.90625 -20.515625q3.703125 -10.59375 8.625 -21.765625q4.9375 -11.171875 10.3125 -22.796875q5.375 -11.625 9.296875 -23.625q2.34375 -7.6250153 4.0 -15.82814q1.671875 -8.21875 2.046875 -16.359375q0.390625 -8.15625 -0.578125 -15.9375q-0.953125 -7.78125 -3.375 -14.34375zm30.46875 112.57814q2.046875 4.28125 1.34375 4.296875q0.0625 -3.625 4.1875 -12.1875q4.140625 -8.578125 9.28125 -17.0625q5.15625 -8.484375 10.734375 -16.859375q5.59375 -8.390625 10.34375 -16.906265q3.46875 -5.96875 5.875 -12.875q2.40625 -6.921875 3.453125 -14.109375q1.0625 -7.1875 0.59375 -14.171875q-0.46875 -7.0 -2.8125 -12.921875q-1.6875 -2.828125 0.40625 -4.984375q2.65625 -2.5625 4.8125 -0.390625q2.15625 2.15625 2.484375 2.796875q2.5937347 3.640625 4.1874847 9.53125q1.609375 5.890625 2.328125 12.8125q0.71875 6.90625 0.71875 14.453125q0 7.53125 -0.609375 15.0625q-0.796875 9.95314 -2.9375 21.73439q-2.1249847 11.765625 -5.2656097 21.78125q-0.234375 0.46875 -1.078125 2.8125q-0.828125 2.34375 -4.359375 2.34375q-2.546875 -1.265625 -2.875 -3.6875q-0.328125 -2.4375 -0.328125 -3.046875q0 -2.234375 0.09375 -5.375q0.109375 -3.15625 0.3125 -6.515625q0.21875 -3.359375 0.515625 -6.546875q0.3125 -3.1875 0.734375 -5.5q0.1875 -1.09375 0.671875 -5.3125q0.5 -4.2343903 4.0 -9.343765q0.546875 6.6875153 -0.828125 10.968765q-1.359375 4.28125 -2.34375 8.359375q-0.96875 4.0625 -1.640625 8.5625q-0.671875 4.5 -1.28125 10.609375q-0.578125 6.03125 -0.484375 12.609375q0.109375 6.5625 1.34375 12.890625q1.25 6.3125 3.609375 12.28125q2.375 5.953125 6.171875 10.90625q2.7656097 4.1875 -0.765625 6.03125q-2.453125 1.125 -4.46875 -0.890625q-6.734375 -5.46875 -10.6875 -12.40625q-3.9375 -6.953125 -5.84375 -14.53125q-1.90625 -7.578125 -2.015625 -15.359375q-0.09375 -7.78125 0.75 -15.234375q0.390625 -2.609375 0.6875 -5.1875q0.3125 -2.59375 2.8125 -2.28125q-0.96875 6.359375 -5.5625 13.34375q-4.59375 6.96875 -8.53125 13.765625q-3.9375 6.796875 -6.953125 13.296875q-3.0 6.5 -4.578125 13.015625q-1.28125 3.171875 -1.28125 3.171875q-5.625 0 -5.625 -2.359375q0 -2.359375 0 -2.5625q0 -1.59375 0 -3.375q0 -1.796875 1.109375 -1.90625q-0.671875 0.828125 -2.0625 0.03125q-1.390625 -0.8125 -2.71875 -2.015625q-1.3125 -1.203125 -2.578125 -2.8125q-1.25 -1.609375 -2.59375 -4.0625q-1.109375 -2.21875 -2.171875 -5.171875q-1.046875 -2.96875 -1.8125 -5.875q-0.765625 -2.921875 -0.96875 -6.625q-0.1875 -3.71875 3.71875 -3.71875q2.0 0 3.0 1.40625q1.0 1.40625 1.703125 2.578125q0.703125 1.15625 1.125 2.21875q0.421875 1.046875 0.609375 1.4375q1.015625 2.40625 2.078125 4.640625q1.0625 2.234375 2.265625 4.421875zm1.90625 -37.578125q1.15625 -8.09375 5.875 -16.234375q4.734375 -8.14064 7.515625 -12.906265q4.828125 -8.640625 10.03125 -16.953125q5.21875 -8.328125 8.875 -14.484375q0.421875 -1.03125 2.046875 -3.65625q1.640625 -2.625 2.96875 1.890625q3.828125 -2.171875 3.234375 0.703125q-0.578125 2.875 -0.78125 3.859375q-2.890625 14.875 -10.328125 27.9375q-7.4375 13.04689 -15.46875 26.10939q-2.859375 4.484375 -4.9375 7.359375q-2.078125 2.875 -3.453125 5.34375q-1.375 2.46875 -2.28125 5.359375q-0.890625 2.875 -4.390625 7.28125q-2.078125 -3.4375 -1.03125 -5.546875q1.0625 -2.109375 2.109375 -4.0q5.703125 -9.78125 12.765625 -19.46875q7.078125 -9.687515 14.03125 -18.281265q0.4375 -0.421875 2.28125 -2.609375q1.84375 -2.1875 4.4375 -0.890625q2.796875 1.390625 1.90625 4.21875q-0.875 2.8125 -1.125 3.8125q-1.125 2.46875 -2.65625 5.7031403q-1.515625 3.234375 -3.25 6.59375q-1.734375 3.359375 -3.578125 6.5625q-1.84375 3.1875 -3.3125 5.265625q-0.796875 1.21875 -3.375 4.78125q-2.5625 3.546875 -5.484375 8.796875q-2.90625 5.234375 -5.703125 11.796875q-2.796875 6.5625 -5.859375 23.09375q-4.75 -9.640625 -5.71875 -11.546875q-0.953125 -1.921875 -2.234375 -6.203125q-3.703125 -13.015625 -4.015625 -26.140625q-0.3125 -13.125 -0.109375 -26.79689q0.203125 -8.5625 0.09375 -16.921875q-0.09375 -8.359375 -2.78125 -17.59375q-0.5 -1.984375 1.078125 -5.15625q3.984375 0 5.59375 2.359375q3.984375 4.21875 5.90625 12.03125q1.921875 7.8125 2.734375 16.09375q0.828125 8.265625 0.921875 16.04689q0.109375 7.78125 0.109375 12.390625l-2.640625 0zm-56.0625 -16.359375q3.4375 -10.51564 7.75 -21.14064q4.3125 -10.640625 7.515625 -19.03125q0.46875 -1.140625 1.703125 -3.609375q1.234375 -2.484375 3.40625 0.296875q3.375 -1.46875 3.140625 1.453125q-0.21875 2.921875 -0.21875 3.96875q-1.859375 16.90625 -7.328125 33.3125q-5.46875 16.406265 -12.109375 32.29689q-4.015625 10.046875 -8.578125 20.0625q-4.5625 10.0 -7.53125 21.703125q-2.265625 0 -0.1875 1.796875q2.078125 1.78125 -4.140625 1.78125q-2.78125 -1.859375 -2.78125 -4.65625q-1.0625 -6.375 1.234375 -15.859375q2.296875 -9.5 5.734375 -19.3125q3.4375 -9.8125 7.03125 -18.6875q3.59375 -8.875 5.359375 -14.375zm-8.484375 47.296875q5.015625 -11.421875 10.828125 -23.546875q5.8125 -12.140625 11.140625 -22.96875q0.21875 -0.6875 1.765625 -3.4375153q1.5625 -2.75 4.28125 -2.109375q3.546875 0 3.109375 3.828125q-0.421875 3.8125153 -0.90625 4.7500153q-0.515625 2.46875 -1.546875 6.4375q-1.015625 3.96875 -2.34375 8.140625q-1.3125 4.171875 -2.75 8.15625q-1.4375 3.984375 -2.703125 6.78125q-0.5625 1.109375 -2.03125 4.9375q-1.46875 3.828125 -3.578125 9.234375q-2.09375 5.390625 -4.390625 11.46875q-2.28125 6.078125 -4.28125 11.5625q-2.0 5.484375 -3.4375 9.609375q-1.4375 4.125 -1.609375 5.6875q-0.90625 4.65625 -3.890625 4.65625q-3.1875 0 -3.15625 -1.984375q0.046875 -1.984375 -0.484375 -1.84375q-1.296875 -3.09375 -1.1875 -8.15625q0.109375 -5.0625 1.140625 -10.453125q1.046875 -5.40625 2.59375 -10.96875q1.546875 -5.578125 3.4375 -9.78125zm125.17186 -15.578125q-1.03125 9.171875 -3.15625 18.265625q-2.109375 9.078125 -3.75 16.1875q-1.921875 6.296875 -4.6093597 3.25q-2.796875 1.46875 -3.046875 -0.75q-0.25 -2.21875 -0.453125 -3.203125q-1.65625 -13.953125 0.375 -27.578125q2.046875 -13.625 4.453125 -27.6875q1.5781097 -8.3125 2.5468597 -16.98439q0.984375 -8.671875 0 -18.703125q0 -2.28125 2.265625 -4.46875q4.203125 0 3.421875 1.75q-0.78125 1.75 0.9375 0.09375q3.96875 5.828125 4.5 14.0625q0.53125 8.234375 -0.078125 16.79689q-0.609375 8.546875 -1.71875 16.390625q-1.109375 7.828125 -1.6875 12.578125zm-96.82811 -76.42189q-0.375 -4.09375 -1.0625 -7.5625q-0.671875 -3.46875 -1.5625 -6.859375q-0.390625 -0.78125 -0.390625 -3.296875q0 -2.53125 3.328125 -2.53125q1.859375 0 3.40625 1.5l0.96875 0.96875q2.515625 3.421875 4.109375 6.734375q1.59375 3.296875 2.046875 10.515625q0.1875 2.765625 -0.015625 6.75q-0.203125 3.96875 -0.734375 7.546875q-0.515625 3.578125 -1.71875 7.65625q-1.1875 4.0625 -4.265625 2.28125q-2.625 0.6875 -3.0625 -1.78125q-0.4375 -2.46875 -0.546875 -4.0q-0.109375 -1.546875 -0.109375 -3.09375q0 -1.5625 0 -2.15625q0 -3.40625 0 -6.40625q0 -3.015625 -0.390625 -6.265625zm73.1875 -2.734375q-0.1875 -3.46875 -0.671875 -6.484375q-0.46875 -3.03125 -1.328125 -5.953125q-0.296875 -0.59375 -0.90625 -4.484375q-0.59375 -3.90625 5.703125 -0.625q0.515625 0.515625 0.59375 0.578125q0.09375 0.046875 0.8125 0.421875l0.875 0.890625q2.5 3.171875 4.03125 6.234375q1.53125 3.046875 1.734375 9.78125q0 2.484375 -0.53125 6.046875q-0.515625 3.5625 -1.265625 6.875q-0.734375 3.296875 -2.34375 7.03125q-1.59375 3.71875 -5.375 1.890625q-2.125 -1.109375 -2.125 -3.15625q0 -2.046875 0 -3.46875q0 -1.421875 0.1875 -2.625q0.203125 -1.203125 0.203125 -1.75q0.40625 -3.25 0.5 -5.890625q0.109375 -2.640625 -0.09375 -5.3125zm13.078125 117.187515q1.1093597 3.15625 2.5468597 5.828125q1.4375 2.671875 1.96875 5.703125q1.1875 -0.28125 2.375 2.671875q1.203125 2.9375 -3.84375 2.9375q-1.546875 0 -2.1562347 -0.40625q-0.59375 -0.40625 -0.8125 -0.5q-0.875 -0.453125 -1.3125 -0.875q-2.859375 -2.265625 -4.96875 -4.59375q-2.09375 -2.328125 -4.125 -8.203125q-0.65625 -2.203125 -1.296875 -5.359375q-0.640625 -3.171875 -0.859375 -6.203125q-0.203125 -3.03125 0.140625 -6.5625q0.359375 -3.546875 3.984375 -3.546875q2.234375 0 3.09375 1.9375q0.859375 1.921875 1.1875 3.140625q0.34375 1.21875 0.59375 2.171875q0.25 0.9375 0.40625 1.21875q1.125 3.1875 1.734375 5.796875q0.609375 2.609375 1.34375 4.84375z" fill-rule="nonzero"/><path fill="#d5a6bd" d="m381.62262 171.27632q-4.6875 18.078125 -11.578125 37.59375q-6.890625 19.5 -14.359375 37.15625q-0.4375 0.859375 -2.984375 5.625q-2.546875 4.7656403 -6.140625 0.625q-5.78125 2.09375 -5.4375 -3.828125q0.34375 -5.9375 0.703125 -7.0q0.296875 -3.609375 1.3125 -9.71875q1.03125 -6.125 2.203125 -12.5625q1.1875 -6.4375 2.71875 -12.578125q1.546875 -6.140625 3.046875 -11.046875q0.609375 -1.203125 1.859375 -6.1875q1.25 -5.0 2.734375 -12.40625q1.484375 -7.421875 3.140625 -16.359375q1.65625 -8.9375 3.015625 -13.359375l4.1875 0.21875q0.359375 8.09375 -2.875 20.46875q-3.21875 12.359375 -7.0625 24.5625q-3.828125 12.203125 -7.484375 24.625q-3.640625 12.40625 -6.609375 24.578125q-2.578125 11.34375 -3.890625 23.687515q-1.296875 12.328125 -0.96875 24.75q0.328125 12.421875 2.859375 24.015625q2.546875 11.578125 7.640625 21.484375q4.1875 9.75 -4.03125 9.75q-2.828125 0 -4.671875 -1.859375l-0.828125 -0.8125q-10.09375 -11.90625 -14.859375 -25.5q-4.765625 -13.609375 -5.984375 -27.859375q-1.21875 -14.265625 0.484375 -28.65625q1.71875 -14.39064 4.78125 -28.000015q5.734375 -24.9375 13.40625 -47.765625q7.671875 -22.84375 11.625 -39.203125q-14.46875 -2.40625 -31.5 -5.15625q-17.03125 -2.765625 -31.609375 0.15625q-6.71875 0 -6.71875 -5.546875q0 -4.375 2.53125 -3.625q2.53125 0.75 0.859375 -1.875q12.9375 -7.6249924 26.640625 -8.328117q13.71875 -0.71875 27.859375 1.15625q14.15625 1.875 28.515625 4.6875q14.359375 2.7968674 28.625 3.1249924q8.453125 0.3125 17.734375 -1.421875q9.28125 -1.7343674 17.8125 -5.2968674q8.546875 -3.5625 15.359375 -9.3125q6.828125 -5.765625 10.875 -13.328125q1.890625 -4.640625 11.265625 -4.640625l0 6.203125l0 1.390625q-4.21875 14.59375 -12.625 23.546875q-8.40625 8.937492 -19.015625 14.328117q-10.59375 5.390625 -22.40625 7.34375q-11.8125 1.9375 -16.6875 1.78125q0.78125 4.796875 -0.78125 18.953125q-1.546875 14.140625 -4.59375 28.34375q-3.03125 14.1875 -6.390625 26.75q-3.34375 12.546875 -5.328125 20.171875q-4.046875 16.14064 -9.40625 32.92189q-5.359375 16.765625 -9.765625 29.59375q-0.875 2.21875 -3.078125 5.75q-2.203125 3.515625 -7.140625 1.09375q-3.875 -2.015625 -3.53125 -5.140625q0.34375 -3.125 0.34375 -4.609375q1.03125 -25.640625 7.4375 -50.937515q6.421875 -25.3125 13.765625 -50.734375q3.984375 -13.953125 7.75 -28.046875q3.78125 -14.109375 8.546875 -28.015625q-0.15625 3.375 -1.0625 3.375q-0.90625 0 -0.90625 -3.546875q3.546875 5.21875 3.015625 11.953125q-0.53125 6.734375 -2.34375 12.5zm4.71875 -77.59374q12.8125 1.65625 25.96875 2.640625q13.171875 0.984375 22.640625 0.984375q8.546875 0 8.546875 6.203125q0 5.203125 -6.84375 7.25q-17.8125 6.984375 -37.34375 6.296875q-19.515625 -0.703125 -39.125 -3.75q-11.609375 -1.640625 -23.609375 -3.265625q-12.0 -1.625 -25.359375 -0.078125q-7.46875 1.828125 -7.46875 -5.453125q0 -3.890625 1.734375 -4.75q1.734375 -0.875 2.0625 -1.203125q7.703125 -5.671875 18.546875 -7.296875q10.859375 -1.625 22.046875 -1.453125q11.203125 0.15625 21.375 1.515625q10.171875 1.359375 16.828125 2.359375zm-50.015625 10.328125q14.1875 2.03125 28.84375 5.0625q14.65625 3.03125 29.84375 7.109375q-0.4375 2.421875 3.515625 2.3125q3.96875 -0.125 3.96875 5.015625q0 5.0624924 -3.625 5.6718674q-3.609375 0.59375 -4.5 1.203125q-4.515625 0.984375 -9.34375 0.984375q-4.828125 0 -9.765625 -0.15625q-4.921875 -0.171875 -9.796875 -0.515625q-4.859375 -0.359375 -8.390625 -1.0625q-2.109375 -0.3125 -11.125 -1.296875q-9.015625 -0.9843674 -19.8125 -1.2968674q-10.796875 -0.328125 -20.28125 0.140625q-9.484375 0.46875 -12.828125 2.2656174q-2.5 1.265625 -4.078125 1.265625l-5.53125 0q0 -8.703117 2.609375 -11.312492q3.859375 -4.984375 10.453125 -8.375q6.59375 -3.40625 13.46875 -5.21875q6.875 -1.8125 13.875 -2.15625q7.0 -0.359375 12.5 0.359375zm15.4375 210.65625q0.953125 5.375 2.359375 10.75q1.421875 5.359375 3.53125 10.203125q5.109375 10.078125 -4.359375 10.078125q-1.890625 0 -4.34375 -1.203125q-2.21875 -1.140625 -3.015625 -2.734375q-4.234375 -4.890625 -7.09375 -9.84375q-2.859375 -4.953125 -4.671875 -15.515625q-0.734375 -4.015625 -0.90625 -10.0q-0.171875 -5.984375 0.171875 -11.578125q0.34375 -5.609375 1.421875 -11.5625q1.09375 -5.96875 6.765625 -5.96875q4.203125 0 5.3125 3.703125q1.109375 3.6875 1.46875 6.03125q0.359375 2.34375 0.71875 4.703125q0.375 2.359375 0.375 3.140625q0.625 5.40625 1.125 10.375q0.5 4.96875 1.140625 9.421875zm88.21875 -211.85938q6.71875 -5.796875 11.140625 -12.265625q1.921875 -3.90625 5.828125 -3.90625q5.53125 0 5.53125 7.53125q0 2.171875 -0.515625 3.75q-1.421875 6.03125 -3.515625 10.203125q-2.078125 4.171875 -9.25 9.46875q-2.75 2.34375 -7.1875 4.375q-4.421875 2.015625 -8.546875 3.53125q-4.109375 1.5 -9.484375 1.8125q-5.375 0.296875 -6.890625 -5.828125q0 -3.40625 2.03125 -5.109375q2.046875 -1.703125 3.6875 -2.796875q1.65625 -1.09375 3.125 -2.015625q1.484375 -0.9375 2.375 -1.375q3.078125 -1.546875 6.03125 -3.40625q2.953125 -1.875 5.640625 -3.96875z" fill-rule="nonzero"/></g></svg>