<svg version="1.1" viewBox="0.0 0.0 480.0 480.0" fill="none" stroke="none" stroke-linecap="square" stroke-miterlimit="10" xmlns:xlink="http://www.w3.org/1999/xlink" xmlns="http://www.w3.org/2000/svg"><clipPath id="p.0"><path d="m0 0l480.0 0l0 480.0l-480.0 0l0 -480.0z" clip-rule="nonzero"/></clipPath><g clip-path="url(#p.0)"><path fill="#ffffff" fill-opacity="0.0" d="m0 0l480.0 0l0 480.0l-480.0 0z" fill-rule="evenodd"/><path fill="#c9daf8" d="m51.66273 103.788574l0 0c0 -32.360764 26.233578 -58.59435 58.59435 -58.59435l234.37036 0l0 0c15.540192 0 30.443878 6.173317 41.432465 17.161888c10.988556 10.988567 17.161865 25.89227 17.161865 41.43246l0 258.49634c0 32.36078 -26.233582 58.59436 -58.59433 58.59436l-234.37036 0c-32.36077 0 -58.59435 -26.233582 -58.59435 -58.59436z" fill-rule="evenodd"/><path fill="#ff6687" d="m276.57648 110.9504c23.273773 0 40.663208 4.5735855 52.168243 13.720764c5.4709473 4.3313828 10.643738 10.024254 15.518341 17.07862l0 0c3.0517578E-5 1.5258789E-5 3.0517578E-5 3.0517578E-5 6.1035156E-5 4.5776367E-5l-3.0517578E-5 0c0 -1.5258789E-5 -3.0517578E-5 -3.0517578E-5 -3.0517578E-5 -4.5776367E-5l0 0c-17.257965 -18.025963 -42.046967 -28.292427 -74.367035 -30.799385zm-143.84593 -0.34736633c7.779907 0 22.548553 0.057899475 44.305923 0.17368317c0.01423645 7.6293945E-5 0.0284729 1.5258789E-4 0.04272461 2.2888184E-4l0 0l-20.563889 0.69449615c-5.703064 0 -11.488556 3.2999268 -17.356445 9.899796c-5.8349304 6.599861 -10.746826 13.257622 -14.73568 19.973274c-0.19747925 0.33055115 -0.3970642 0.6664276 -0.598732 1.0075836l0 0c0.018218994 -0.04624939 0.036483765 -0.09263611 0.05479431 -0.13919067c1.9779434 -4.978836 3.4119568 -9.012085 4.3020325 -12.099747c0.8900757 -3.1262512 1.8460846 -6.927925 2.8680115 -11.405029c1.0549011 -4.4770966 1.6153259 -7.178795 1.6812592 -8.105095zm-8.906097 31.749062c0 0 0 0 0 0l0 0c0 0 0 0 0 0zm89.295334 -31.421303c4.86026 0.013069153 9.101074 0.019607544 12.722443 0.019607544l6.5310516 0c-1.0904388 32.142464 -1.6356506 70.23641 -1.6356506 114.28185c0 35.122086 0.49449158 71.94237 1.4834595 110.46086c0.1856842 8.587341 8.60817 14.735107 25.26744 18.443298l0 0c3.0517578E-5 0 3.0517578E-5 0 3.0517578E-5 0l-3.0517578E-5 0c0 0 0 0 0 0l0 0c-10.056747 -0.2536621 -20.60553 -0.38049316 -31.646301 -0.38049316c-11.1914215 0 -21.696274 0.11480713 -31.514542 0.34448242l0 0c0 0 0 0 0 0l-6.1035156E-5 0c1.5258789E-5 0 4.5776367E-5 0 6.1035156E-5 0l0 0c12.413376 -3.7606506 18.715103 -9.896393 18.905151 -18.407288c0.9889679 -28.753784 1.4834595 -65.574066 1.4834595 -110.46086c0 -34.512848 -0.53222656 -72.61333 -1.5966797 -114.30146zm-94.23484 -18.216858c-1.318634 11.926071 -3.1976852 22.153923 -5.6371384 30.68357c-2.4394608 8.529648 -4.5987244 14.878647 -6.477768 19.046982c-1.846077 4.12973 -5.9667892 13.296204 -12.362144 27.499435c3.659195 8.529633 11.027031 15.361069 22.103516 20.494308c18.230034 -34.504547 45.426765 -54.49713 81.59016 -59.977707c0.692276 26.167877 1.0384216 57.758453 1.0384216 94.77173c0 44.26924 -0.49449158 80.935165 -1.4834595 109.99773c-0.032958984 0.8876953 -10.384201 2.5473022 -31.05371 4.9788513c-3.659195 10.343628 -3.659195 21.420593 0 33.230865c38.635834 -0.96487427 61.893143 -1.4473267 69.77196 -1.4473267c5.2085724 0 24.988022 0.5017395 59.338303 1.5052185c3.098755 -11.192749 3.4119568 -22.269714 0.93951416 -33.230865c-21.361786 -2.4701233 -32.059174 -4.2648315 -32.092133 -5.3841248c-0.98898315 -22.925842 -1.4834595 -59.475952 -1.4834595 -109.650345c0 -39.29042 0.34613037 -71.47923 1.0384216 -96.56644c21.164001 0 39.262177 5.499893 54.294556 16.499664c15.032349 10.961166 27.04837 26.032791 36.048004 45.21486c12.06546 -5.0560303 19.894806 -11.945374 23.488068 -20.668c-13.482971 -26.167877 -21.59253 -51.834015 -24.328705 -76.998405z" fill-rule="evenodd"/><path stroke="#595959" stroke-width="1.0" stroke-linejoin="round" stroke-linecap="butt" d="m276.57648 110.9504c23.273773 0 40.663208 4.5735855 52.168243 13.720764c5.4709473 4.3313828 10.643738 10.024254 15.518341 17.07862l0 0c3.0517578E-5 1.5258789E-5 3.0517578E-5 3.0517578E-5 6.1035156E-5 4.5776367E-5l-3.0517578E-5 0c0 -1.5258789E-5 -3.0517578E-5 -3.0517578E-5 -3.0517578E-5 -4.5776367E-5l0 0c-17.257965 -18.025963 -42.046967 -28.292427 -74.367035 -30.799385zm-143.84593 -0.34736633c7.779907 0 22.548553 0.057899475 44.305923 0.17368317c0.01423645 7.6293945E-5 0.0284729 1.5258789E-4 0.04272461 2.2888184E-4l0 0l-20.563889 0.69449615c-5.703064 0 -11.488556 3.2999268 -17.356445 9.899796c-5.8349304 6.599861 -10.746826 13.257622 -14.73568 19.973274c-0.19747925 0.33055115 -0.3970642 0.6664276 -0.598732 1.0075836l0 0c0.018218994 -0.04624939 0.036483765 -0.09263611 0.05479431 -0.13919067c1.9779434 -4.978836 3.4119568 -9.012085 4.3020325 -12.099747c0.8900757 -3.1262512 1.8460846 -6.927925 2.8680115 -11.405029c1.0549011 -4.4770966 1.6153259 -7.178795 1.6812592 -8.105095zm-8.906097 31.749062c0 0 0 0 0 0l0 0c0 0 0 0 0 0zm89.295334 -31.421303c4.86026 0.013069153 9.101074 0.019607544 12.722443 0.019607544l6.5310516 0c-1.0904388 32.142464 -1.6356506 70.23641 -1.6356506 114.28185c0 35.122086 0.49449158 71.94237 1.4834595 110.46086c0.1856842 8.587341 8.60817 14.735107 25.26744 18.443298l0 0c3.0517578E-5 0 3.0517578E-5 0 3.0517578E-5 0l-3.0517578E-5 0c0 0 0 0 0 0l0 0c-10.056747 -0.2536621 -20.60553 -0.38049316 -31.646301 -0.38049316c-11.1914215 0 -21.696274 0.11480713 -31.514542 0.34448242l0 0c0 0 0 0 0 0l-6.1035156E-5 0c1.5258789E-5 0 4.5776367E-5 0 6.1035156E-5 0l0 0c12.413376 -3.7606506 18.715103 -9.896393 18.905151 -18.407288c0.9889679 -28.753784 1.4834595 -65.574066 1.4834595 -110.46086c0 -34.512848 -0.53222656 -72.61333 -1.5966797 -114.30146zm-94.23484 -18.216858c-1.318634 11.926071 -3.1976852 22.153923 -5.6371384 30.68357c-2.4394608 8.529648 -4.5987244 14.878647 -6.477768 19.046982c-1.846077 4.12973 -5.9667892 13.296204 -12.362144 27.499435c3.659195 8.529633 11.027031 15.361069 22.103516 20.494308c18.230034 -34.504547 45.426765 -54.49713 81.59016 -59.977707c0.692276 26.167877 1.0384216 57.758453 1.0384216 94.77173c0 44.26924 -0.49449158 80.935165 -1.4834595 109.99773c-0.032958984 0.8876953 -10.384201 2.5473022 -31.05371 4.9788513c-3.659195 10.343628 -3.659195 21.420593 0 33.230865c38.635834 -0.96487427 61.893143 -1.4473267 69.77196 -1.4473267c5.2085724 0 24.988022 0.5017395 59.338303 1.5052185c3.098755 -11.192749 3.4119568 -22.269714 0.93951416 -33.230865c-21.361786 -2.4701233 -32.059174 -4.2648315 -32.092133 -5.3841248c-0.98898315 -22.925842 -1.4834595 -59.475952 -1.4834595 -109.650345c0 -39.29042 0.34613037 -71.47923 1.0384216 -96.56644c21.164001 0 39.262177 5.499893 54.294556 16.499664c15.032349 10.961166 27.04837 26.032791 36.048004 45.21486c12.06546 -5.0560303 19.894806 -11.945374 23.488068 -20.668c-13.482971 -26.167877 -21.59253 -51.834015 -24.328705 -76.998405z" fill-rule="evenodd"/></g></svg>