<svg version="1.1" viewBox="0.0 0.0 480.0 480.0" fill="none" stroke="none" stroke-linecap="square" stroke-miterlimit="10" xmlns:xlink="http://www.w3.org/1999/xlink" xmlns="http://www.w3.org/2000/svg"><clipPath id="p.0"><path d="m0 0l480.0 0l0 480.0l-480.0 0l0 -480.0z" clip-rule="nonzero"/></clipPath><g clip-path="url(#p.0)"><path fill="#001f3b" d="m0 0l480.0 0l0 480.0l-480.0 0z" fill-rule="evenodd"/><path fill="#000000" fill-opacity="0.0" d="m-7.0341206 32.855644l480.0 0l0 392.09448l-480.0 0z" fill-rule="evenodd"/><path fill="#ffffff" d="m131.58987 196.4788q-0.234375 2.84375 -1.03125 6.640625q-0.796875 3.78125 -1.953125 7.140625q-1.15625 3.359375 -3.15625 7.359375q-2.0 3.984375 -4.1875 -0.6875q-3.390625 2.671875 -3.390625 -0.109375q0 -2.78125 0 -4.328125q0 -1.5625 0.21875 -2.859375q0.21875 -1.3125 0.21875 -1.984375q0.671875 -3.609375 0.875 -6.609375q0.21875 -3.0 0.671875 -6.328125q0.40625 -3.953125 0.5 -7.40625q0.109375 -3.46875 -0.53125 -7.34375q0.71875 -0.28125 -0.53125 -2.84375q-1.234375 -2.5625 3.921875 -2.5625q2.1875 0 3.703125 1.71875q1.515625 1.703125 1.9375 2.546875q1.5 2.984375 2.359375 6.90625q0.859375 3.921875 0.375 10.75zm2.484375 -17.015625q4.0 9.390625 4.796875 18.4375q0.796875 9.046875 -0.453125 18.0q-1.234375 8.953125 -4.25 17.671875q-3.015625 8.703125 -6.78125 16.90625q-5.03125 10.95314 -10.609375 21.437515q-5.5625 10.46875 -10.765625 20.453125q-5.203125 9.96875 -9.59375 19.265625q-4.375 9.296875 -6.953125 18.328125q-1.78125 4.421875 -4.953125 3.125q-3.171875 -1.28125 -3.171875 -4.140625q-0.453125 -10.984375 3.15625 -21.9375q3.609375 -10.96875 9.015625 -21.78125q5.40625 -10.8125 11.59375 -21.546875q6.1875 -10.73439 11.125 -21.70314q3.203125 -6.8125 5.734375 -14.21875q2.546875 -7.421875 4.125 -15.21875q1.578125 -7.8125 1.890625 -15.40625q0.3125 -7.609375 -1.109375 -14.78125q-1.984375 -8.890625 3.53125 -3.375q1.9375 -2.46875 3.671875 0.484375zm-70.3125 86.500015q0 0.796875 -0.203125 4.515625q-0.1875 3.71875 -3.578125 2.375q-2.84375 2.921875 -4.125 -0.703125q-1.265625 -3.625 -1.734375 -4.765625q-0.921875 -3.03125 -2.03125 -7.109375q-1.109375 -4.078125 -2.109375 -8.39064q-0.984375 -4.3125 -1.765625 -8.578125q-0.78125 -4.265625 -1.0 -7.375q-0.203125 -1.390625 -0.859375 -5.8125q-0.640625 -4.4375 -1.71875 -10.46875q-1.078125 -6.046875 -2.484375 -12.953125q-1.40625 -6.90625 -3.015625 -13.203125q-1.59375 -6.3125 -3.234375 -11.109375q-1.625 -4.8125 -3.078125 -6.796875q-2.749998 -3.890625 -0.3125 -6.328125q2.59375 -2.6875 4.515625 -1.078125q1.921875 1.609375 2.3125 1.984375q3.734375 2.8125 7.109375 7.9375q3.390625 5.125 6.109375 10.78125q2.71875 5.65625 4.53125 11.671875q1.8125 6.015625 2.515625 10.8125q1.96875 12.96875 2.84375 27.421875q0.875 14.453125 1.3125 27.17189zm7.062504 31.671875q-4.421875 -14.75 -7.062504 -30.328125q-2.625 -15.57814 -4.578125 -31.29689q-1.515625 -11.453125 -3.453125 -22.8125q-1.921875 -11.375 -5.9375 -23.421875q-0.640625 -1.609375 -0.640625 -3.09375q0 -1.484375 3.03125 -3.0q2.65625 0 4.71875 2.09375q5.125 5.125 8.437504 15.171875q3.3125 10.03125 5.625 20.9375q2.3125 10.90625 3.828125 21.046875q1.53125 10.140625 2.609375 16.125015q1.09375 5.046875 1.875 10.375q0.78125 5.328125 -2.15625 10.9375q-1.703125 -6.953125 0.953125 -13.296875q2.671875 -6.34375 5.421875 -12.281265q2.765625 -5.9375 5.484375 -11.046875q2.71875 -5.125 4.421875 -8.734375q4.640625 -9.9375 10.59375 -19.96875q5.953125 -10.046875 11.0625 -16.9375q3.0 -3.96875 6.265625 -3.96875q2.9375 2.84375 2.265625 4.890625q-0.65625 2.046875 -1.0625 3.0625q-4.40625 15.796875 -11.984375 30.734375q-7.5625 14.9375 -15.1875 29.98439q-4.34375 8.25 -8.59375 16.53125q-4.25 8.265625 -6.3125 18.21875q-0.671875 3.703125 -3.953125 6.03125q-3.265625 2.328125 -5.671875 -5.953125zm12.015625 28.515625q6.28125 4.1875 1.875 5.65625q-4.40625 1.453125 -6.21875 0.25q-8.875 -4.109375 -15.359379 -11.375q-6.46875 -7.28125 -10.890625 -16.109375q-4.421875 -8.84375 -7.09375 -18.640625q-2.671875 -9.8125 -4.421875 -19.296875q-2.421875 -13.187515 -3.734375 -26.281265q-1.3125 -13.09375 -2.9375 -25.515625q-1.609375 -12.4375 -3.749998 -23.640625q-2.125 -11.203125 -5.875 -20.328125q-0.28125 -0.5625 -0.734375 -1.96875q-0.4375 -1.421875 1.40625 -3.328125q3.15625 -3.15625 4.796875 -0.703125q1.65625 2.4375 1.84375 2.8125q6.921873 9.390625 10.406248 21.4375q3.5 12.046875 5.25 25.15625q1.765625 13.09375 2.953125 26.640625q1.203125 13.546875 3.5625 26.23439q1.484375 8.078125 4.03125 16.46875q2.5625 8.375 6.140629 16.296875q3.59375 7.921875 8.265625 14.671875q4.671875 6.75 10.484375 11.5625zm-5.515625 -0.328125q-1.328125 -1.3125 -3.484375 -3.59375q-2.15625 -2.28125 -4.125 -4.96875q-1.5 -2.5 -3.09375 -6.25q-1.59375 -3.75 -2.8437538 -7.390625q-1.25 -3.65625 -2.125 -7.953125q-0.859375 -4.296875 3.1718788 -5.640625q2.4375 0 3.796875 1.78125q1.375 1.765625 2.078125 3.1875q0.71875 1.421875 1.234375 2.390625q0.53125 0.953125 0.9375 1.359375q2.0 3.484375 3.359375 6.109375q1.375 2.625 2.484375 5.5q1.140625 2.46875 1.09375 5.1875q-0.046875 2.703125 -1.265625 -0.5q1.40625 3.203125 -0.28125 2.234375q-1.6875 -0.96875 -1.796875 -2.5q-0.109375 -1.53125 -0.234375 -3.0q-0.109375 -1.484375 -0.109375 -2.171875q-0.46875 -8.75 1.484375 -15.65625q1.96875 -6.90625 4.46875 -12.5625q5.09375 -11.28125 11.921875 -22.515625q6.828125 -11.23439 14.015625 -21.35939q0.546875 -0.546875 2.65625 -3.015625q2.125 -2.484375 4.734375 -1.1875q3.5 1.203125 2.484375 4.640625q-1.0 3.421875 -1.234375 4.140625q-0.90625 2.703125 -2.34375 6.234375q-1.4375 3.53125 -2.984375 7.375q-1.53125 3.8437653 -3.203125 7.4218903q-1.65625 3.5625 -3.0 6.0q-0.609375 1.21875 -2.3125 4.859375q-1.703125 3.625 -3.875 8.90625q-2.15625 5.28125 -4.53125 11.328125q-2.375 6.046875 -4.40625 11.734375q-2.03125 5.671875 -3.265625 10.171875q-1.21875 4.5 -1.21875 6.875q0 4.921875 -4.046875 4.921875q-2.078125 0 -4.140625 -2.09375zm111.07941 -152.90627q-2.96875 -6.625 2.703125 -6.625q2.1875 0 3.515625 1.515625q1.34375 1.5 1.734375 1.890625q2.34375 3.53125 5.015625 7.453125q2.6875 3.90625 5.203125 9.375q2.515625 5.46875 4.53125 12.578125q2.03125 7.09375 3.15625 16.703125q1.34375 10.984375 0.5625 21.5625q-0.765625 10.578125 -2.625 21.67189q-0.765625 0.1875 -0.84375 3.21875q-0.0625 3.015625 -3.71875 3.015625q-3.046875 0 -3.875 -3.09375q-0.828125 -3.109375 -0.828125 -3.90625q-0.375 -2.171875 -0.828125 -5.5000153q-0.453125 -3.34375 -0.796875 -7.015625q-0.328125 -3.671875 -0.4375 -7.109375q-0.109375 -3.453125 -0.109375 -6.125q0 -0.796875 -0.109375 -3.6875q-0.109375 -2.890625 -0.328125 -6.734375q-0.203125 -3.859375 -0.734375 -8.453125q-0.53125 -4.609375 2.171875 -9.609375q3.828125 6.75 3.375 13.625q-0.4375 6.859375 -1.09375 13.71875q-0.640625 6.84375 -1.078125 13.5625q-0.421875 6.71875 0.015625 13.48439q0.625 13.03125 5.1875 26.328125q4.578125 13.296875 14.4375 22.53125q7.140625 7.140625 -1.046875 4.671875q-0.796875 3.15625 -3.46875 1.5625q-8.109375 -4.625 -13.46875 -11.140625q-5.34375 -6.515625 -8.671875 -14.078125q-3.3125 -7.5625 -4.90625 -15.609375q-1.578125 -8.046875 -1.796875 -16.203125q0 -0.359375 -0.109375 -0.90626526q-0.109375 -0.546875 3.28125 -1.53125q-1.21875 13.687515 -6.59375 25.29689q-5.359375 11.59375 -10.46875 22.265625q-5.109375 10.65625 -9.515625 20.015625q-4.40625 9.359375 -6.984375 17.3125q-1.34375 3.3125 -3.84375 3.3125q-3.828125 0 -3.828125 -2.34375q0 -2.34375 0 -2.59375q0.234375 -10.796875 4.25 -22.3125q4.03125 -11.53125 9.390625 -23.671875q5.359375 -12.140625 11.1875 -24.78125q5.84375 -12.656265 10.125 -25.70314q2.546875 -8.28125 4.34375 -17.203125q1.8125 -8.9375 2.234375 -17.796875q0.421875 -8.859375 -0.625 -17.328125q-1.03125 -8.46875 -3.6875 -15.609375zm33.125 122.437515q2.21875 4.640625 1.46875 4.65625q0.078125 -3.921875 4.5625 -13.234375q4.5 -9.328125 10.09375 -18.5625q5.609375 -9.234375 11.6875 -18.32814q6.078125 -9.109375 11.234375 -18.375q3.765625 -6.484375 6.375 -14.0q2.609375 -7.53125 3.75 -15.34375q1.15625 -7.828125 0.640625 -15.421875q-0.5 -7.609375 -3.03125 -14.03125q-1.890625 -3.109375 0.4375 -5.421875q2.828125 -2.84375 5.1875 -0.46875q2.375 2.359375 2.734375 3.0625q2.796875 3.984375 4.546875 10.390625q1.75 6.390625 2.53125 13.90625q0.78125 7.515625 0.78125 15.71875q0 8.203125 -0.671875 16.390625q-0.875 10.8125 -3.203125 23.609375q-2.3125 12.79689 -5.703125 23.687515q-0.25 0.5 -1.171875 3.0625q-0.90625 2.546875 -4.78125 2.546875q-2.71875 -1.40625 -3.078125 -4.03125q-0.34375 -2.625 -0.34375 -3.28125q0 -2.453125 0.109375 -5.859375q0.109375 -3.421875 0.328125 -7.0625q0.234375 -3.6406403 0.5625 -7.1093903q0.328125 -3.484375 0.78125 -6.0q0.203125 -1.1875 0.734375 -5.78125q0.546875 -4.59375 4.34375 -10.15625q0.578125 7.28125 -0.90625 11.921875q-1.46875 4.640625 -2.53125 9.09375q-1.0625 4.4375 -1.8125 9.32814q-0.734375 4.875 -1.375 11.53125q-0.640625 6.546875 -0.53125 13.703125q0.109375 7.140625 1.453125 14.015625q1.359375 6.859375 3.921875 13.359375q2.578125 6.484375 6.734375 11.859375q3.03125 4.578125 -0.8125 6.5q-2.59375 1.359375 -4.875 -0.9375q-7.3125 -5.921875 -11.609375 -13.46875q-4.296875 -7.546875 -6.375 -15.796875q-2.0625 -8.25 -2.171875 -16.703125q-0.109375 -8.46875 0.796875 -16.578125q0.4375 -2.828125 0.75 -5.640625q0.328125 -2.828125 3.046875 -2.484375q-1.0625 6.921875 -6.046875 14.515625q-4.984375 7.578125 -9.28125 14.984375q-4.28125 7.390625 -7.546875 14.453125q-3.265625 7.0625 -5.0 14.140625q-1.34375 3.453125 -1.34375 3.453125q-6.140625 0 -6.140625 -2.5625q0 -2.5625 0 -2.78125q0 -1.734375 0 -3.6875q0 -1.953125 1.25 -2.078125q-0.796875 0.921875 -2.296875 0.046875q-1.5 -0.890625 -2.9375 -2.1875q-1.421875 -1.3125 -2.796875 -3.046875q-1.375 -1.75 -2.84375 -4.4375q-1.203125 -2.421875 -2.359375 -5.625q-1.140625 -3.21875 -1.96875 -6.375q-0.828125 -3.171875 -1.046875 -7.203125q-0.203125 -4.03125 4.03125 -4.03125q2.1875 0 3.28125 1.53125q1.09375 1.53125 1.84375 2.796875q0.75 1.25 1.203125 2.40625q0.46875 1.140625 0.6875 1.5625q1.078125 2.640625 2.234375 5.0625q1.15625 2.40625 2.46875 4.796875zm2.0625 -40.85939q1.28125 -8.796875 6.40625 -17.640625q5.140625 -8.859375 8.1875 -14.0625q5.234375 -9.390625 10.90625 -18.421875q5.671875 -9.046875 9.640625 -15.765625q0.453125 -1.109375 2.203125 -3.90625q1.765625 -2.8125 3.25 1.96875q4.140625 -2.328125 3.515625 0.796875q-0.625 3.109375 -0.84375 4.1875q-3.15625 16.1875 -11.25 30.390625q-8.078125 14.1875 -16.828125 28.375q-3.109375 4.890625 -5.375 8.01564q-2.25 3.109375 -3.75 5.8125q-1.5 2.6875 -2.484375 5.828125q-0.96875 3.125 -4.75 7.90625q-2.25 -3.734375 -1.109375 -6.015625q1.15625 -2.296875 2.296875 -4.359375q6.1875 -10.625 13.875 -21.156265q7.703125 -10.546875 15.265625 -19.875q0.453125 -0.46875 2.453125 -2.84375q2.015625 -2.375 4.84375 -0.96875q3.03125 1.515625 2.0625 4.578125q-0.96875 3.0625 -1.234375 4.140625q-1.234375 2.6875 -2.875 6.21875q-1.640625 3.515625 -3.53125 7.171875q-1.890625 3.640625 -3.90625 7.109375q-2.0 3.46875 -3.59375 5.7500153q-0.890625 1.3125 -3.671875 5.171875q-2.78125 3.859375 -5.953125 9.578125q-3.171875 5.703125 -6.21875 12.84375q-3.046875 7.125 -6.328125 25.0q-5.1875 -10.390625 -6.234375 -12.46875q-1.03125 -2.09375 -2.4375 -6.734375q-4.03125 -14.140625 -4.375 -28.421875q-0.328125 -14.281265 -0.109375 -29.14064q0.21875 -9.3125 0.109375 -18.40625q-0.109375 -9.09375 -3.03125 -19.140625q-0.546875 -2.140625 1.171875 -5.578125q4.328125 0 6.0625 2.5625q4.328125 4.59375 6.421875 13.078125q2.09375 8.484375 2.984375 17.484375q0.890625 9.0 1.0 17.46875q0.109375 8.453125 0.109375 13.46875l-2.875 0zm-60.921875 -17.796875q3.71875 -11.421875 8.40625 -22.984375q4.703125 -11.5625 8.171875 -20.6875q0.5 -1.25 1.84375 -3.90625q1.34375 -2.671875 3.71875 0.234375q3.65625 -1.53125 3.40625 1.640625q-0.234375 3.171875 -0.234375 4.3125q-2.03125 18.390625 -7.984375 36.234375q-5.9375 17.828125 -13.15625 35.10939q-4.359375 10.921875 -9.3125 21.8125q-4.953125 10.875 -8.203125 23.640625q-2.5 -0.03125 -0.234375 1.90625q2.265625 1.9375 -4.484375 1.9375q-2.984375 -2.03125 -2.984375 -5.0625q-1.15625 -6.9375 1.328125 -17.25q2.5 -10.3125 6.234375 -20.96875q3.734375 -10.671875 7.640625 -20.32814q3.90625 -9.65625 5.84375 -15.640625zm-9.234375 51.437515q5.453125 -12.421875 11.765625 -25.625q6.328125 -13.20314 12.109375 -24.968765q0.25 -0.734375 1.921875 -3.71875q1.6875 -2.984375 4.65625 -2.296875q3.84375 0 3.375 4.140625q-0.46875 4.140625 -0.984375 5.1875q-0.578125 2.671875 -1.6875 7.0q-1.09375 4.3125 -2.53125 8.843765q-1.4375 4.53125 -3.0 8.875q-1.5625 4.34375 -2.9375 7.359375q-0.609375 1.203125 -2.21875 5.375q-1.609375 4.15625 -3.890625 10.03125q-2.265625 5.875 -4.765625 12.484375q-2.484375 6.609375 -4.65625 12.578125q-2.171875 5.953125 -3.734375 10.4375q-1.5625 4.46875 -1.75 6.203125q-1.015625 5.046875 -4.234375 5.046875q-3.453125 0 -3.390625 -2.171875q0.0625 -2.15625 -0.546875 -1.96875q-1.421875 -3.390625 -1.3125 -8.890625q0.125 -5.5 1.25 -11.359375q1.140625 -5.875 2.8125 -11.9375q1.6875 -6.0625 3.75 -10.625zm136.07812 -16.9375q-1.109375 9.96875 -3.421875 19.859375q-2.3125 9.875 -4.0625 17.59375q-2.109375 6.828125 -5.015625 3.53125q-3.03125 1.59375 -3.3125 -0.8125q-0.265625 -2.421875 -0.46875 -3.5q-1.8125 -15.140625 0.390625 -29.953125q2.21875 -14.8125 4.828125 -30.125015q1.71875 -9.015625 2.78125 -18.453125q1.0625 -9.453125 0 -20.34375q0 -2.4375 2.421875 -4.859375q4.65625 0 3.78125 1.90625q-0.859375 1.90625 1.0 0.140625q4.296875 6.28125 4.875 15.234375q0.59375 8.953125 -0.078125 18.265625q-0.671875 9.296875 -1.875 17.82814q-1.203125 8.53125 -1.84375 13.6875zm-105.265625 -83.10939q-0.40625 -4.4375 -1.15625 -8.21875q-0.734375 -3.78125 -1.6875 -7.453125q-0.421875 -0.8125 -0.421875 -3.578125q0 -2.765625 3.609375 -2.765625q2.046875 0 3.6875 1.65625l1.0625 1.046875q2.734375 3.71875 4.46875 7.3125q1.734375 3.59375 2.21875 11.421875q0.203125 3.015625 -0.015625 7.328125q-0.21875 4.3125 -0.796875 8.203125q-0.5625 3.890625 -1.859375 8.3125q-1.28125 4.40625 -4.640625 2.5625q-2.828125 0.6875 -3.328125 -1.984375q-0.484375 -2.6875 -0.609375 -4.359375q-0.109375 -1.671875 -0.109375 -3.359375q0 -1.6875 0 -2.34375q0 -3.703125 0 -6.96875q0 -3.265625 -0.421875 -6.8125zm79.578125 -2.984375q-0.1875 -3.75 -0.703125 -7.03125q-0.515625 -3.296875 -1.46875 -6.484375q-0.3125 -0.640625 -0.96875 -4.859375q-0.65625 -4.234375 6.171875 -0.6875q0.5625 0.5625 0.65625 0.640625q0.109375 0.0625 0.859375 0.4375l0.96875 0.96875q2.71875 3.46875 4.375 6.78125q1.65625 3.296875 1.90625 10.625q0 2.703125 -0.578125 6.59375q-0.578125 3.875 -1.390625 7.46875q-0.796875 3.578125 -2.5625 7.671875q-1.75 4.078125 -5.828125 2.015625q-2.296875 -1.15625 -2.296875 -3.390625q0 -2.25 0 -3.796875q0 -1.5625 0.21875 -2.859375q0.21875 -1.3125 0.21875 -1.875q0.421875 -3.546875 0.53125 -6.421875q0.109375 -2.890625 -0.109375 -5.796875zm14.21875 127.45314q1.203125 3.40625 2.765625 6.328125q1.5625 2.90625 2.1875 6.171875q1.25 -0.265625 2.53125 2.921875q1.296875 3.1875 -4.171875 3.1875q-1.671875 0 -2.34375 -0.4375q-0.65625 -0.4375 -0.90625 -0.5625q-0.9375 -0.46875 -1.390625 -0.921875q-3.125 -2.453125 -5.40625 -5.0q-2.28125 -2.546875 -4.5 -8.921875q-0.703125 -2.390625 -1.390625 -5.828125q-0.6875 -3.4375 -0.9375 -6.734375q-0.234375 -3.296875 0.15625 -7.140625q0.390625 -3.84375 4.328125 -3.84375q2.4375 0 3.359375 2.109375q0.921875 2.09375 1.28125 3.421875q0.359375 1.3125 0.640625 2.34375q0.296875 1.03125 0.453125 1.359375q1.21875 3.421875 1.875 6.265625q0.65625 2.84375 1.46875 5.28125z" fill-rule="nonzero"/><path fill="#d5a6bd" d="m396.87128 173.55693q-4.296875 16.578125 -10.625 34.46875q-6.3125 17.890625 -13.15625 34.078125q-0.421875 0.796875 -2.734375 5.140625q-2.296875 4.328125 -5.625 0.640625q-5.3125 1.859375 -4.984375 -3.578125q0.328125 -5.4375 0.640625 -6.390625q0.28125 -3.3125 1.21875 -8.921875q0.9375 -5.625 2.015625 -11.53125q1.09375 -5.90625 2.5 -11.53125q1.40625 -5.640625 2.78125 -10.109375q0.546875 -1.109375 1.6875 -5.6875q1.15625 -4.578125 2.515625 -11.375q1.375 -6.8125 2.890625 -15.015625q1.515625 -8.203125 2.765625 -12.234375l3.84375 0.1875q0.3125 7.421875 -2.640625 18.765625q-2.953125 11.34375 -6.484375 22.546875q-3.515625 11.1875 -6.859375 22.578125q-3.34375 11.375 -6.0625 22.53125q-2.375 10.390625 -3.578125 21.70314q-1.1875 11.3125 -0.890625 22.703125q0.3125 11.390625 2.625 22.015625q2.328125 10.625 7.015625 19.703125q3.84375 8.9375 -3.6875 8.9375q-2.671875 0 -4.328125 -1.75l-0.703125 -0.703125q-9.265625 -10.90625 -13.640625 -23.375q-4.375 -12.484375 -5.5 -25.546875q-1.109375 -13.078125 0.46875 -26.281265q1.578125 -13.203125 4.390625 -25.671875q5.234375 -22.84375 12.265625 -43.796875q7.046875 -20.953125 10.671875 -35.9375q-13.265625 -2.21875 -28.875 -4.734375q-15.609375 -2.53125 -29.0 0.140625q-6.140625 0 -6.140625 -5.078125q0 -4.0625 2.34375 -3.28125q2.34375 0.765625 0.703125 -1.734375q11.921875 -7.015625 24.484375 -7.6562424q12.5625 -0.65625 25.53125 1.0624924q12.984375 1.71875 26.140625 4.296875q13.171875 2.5625 26.25 2.859375q7.75 0.28125 16.25 -1.296875q8.515625 -1.59375 16.34375 -4.859375q7.84375 -3.2812424 14.09375 -8.562492q6.25 -5.28125 9.96875 -12.171875q1.703125 -4.28125 10.3125 -4.28125l0 5.671875l0 1.296875q-3.859375 13.359375 -11.578125 21.578117q-7.703125 8.203125 -17.421875 13.140625q-9.71875 4.9375 -20.546875 6.71875q-10.828125 1.78125 -15.296875 1.640625q0.71875 4.40625 -0.71875 17.390625q-1.4375 12.96875 -4.21875 25.984375q-2.78125 13.0 -5.859375 24.515625q-3.0625 11.515625 -4.875 18.5q-3.71875 14.812515 -8.640625 30.187515q-4.90625 15.375 -8.9375 27.140625q-0.8125 2.046875 -2.828125 5.265625q-2.015625 3.203125 -6.515625 1.015625q-3.578125 -1.828125 -3.265625 -4.703125q0.3125 -2.875 0.3125 -4.25q0.953125 -23.515625 6.828125 -46.718765q5.875 -23.203125 12.625 -46.484375q3.640625 -12.796875 7.09375 -25.734375q3.46875 -12.9375 7.828125 -25.671875q-0.140625 3.078125 -0.96875 3.078125q-0.828125 0 -0.828125 -3.234375q3.234375 4.765625 2.75 10.9375q-0.484375 6.171875 -2.140625 11.46875zm4.328125 -71.14062q11.75 1.5 23.8125 2.40625q12.078125 0.90625 20.765625 0.90625q7.828125 0 7.828125 5.6875q0 4.765625 -6.265625 6.640625q-16.34375 6.40625 -34.25 5.78125q-17.890625 -0.640625 -35.859375 -3.421875q-10.65625 -1.53125 -21.65625 -3.015625q-11.0 -1.484375 -23.234375 -0.0625q-6.859375 1.734375 -6.859375 -5.0q0 -3.578125 1.578125 -4.34375q1.578125 -0.78125 1.890625 -1.109375q7.0625 -5.1875 17.015625 -6.671875q9.953125 -1.5 20.21875 -1.34375q10.265625 0.140625 19.59375 1.390625q9.328125 1.25 15.421875 2.15625zm-45.84375 9.484375q13.0 1.84375 26.421875 4.625q13.4375 2.78125 27.34375 6.515625q-0.34375 2.140625 3.265625 2.078125q3.625 -0.0625 3.625 4.6406174q0 4.65625 -3.328125 5.203125q-3.328125 0.546875 -4.140625 1.09375q-4.125 0.90625 -8.546875 0.90625q-4.421875 0 -8.9375 -0.140625q-4.515625 -0.15625 -9.0 -0.484375q-4.46875 -0.328125 -7.671875 -0.96875q-1.9375 -0.265625 -10.21875 -1.171875q-8.265625 -0.921875 -18.171875 -1.21875q-9.890625 -0.296875 -18.578125 0.140625q-8.6875 0.421875 -11.78125 2.09375q-2.3125 1.140625 -3.71875 1.140625l-5.078125 0q0 -7.953125 2.390625 -10.359367q3.53125 -4.578125 9.578125 -7.6875q6.0625 -3.125 12.359375 -4.765625q6.296875 -1.65625 12.71875 -1.984375q6.4375 -0.34375 11.46875 0.34375zm14.140625 193.14062q0.859375 4.9375 2.15625 9.859375q1.3125 4.90625 3.25 9.359375q4.609375 9.21875 -4.0 9.21875q-1.71875 0 -3.9375 -1.09375q-2.109375 -1.03125 -2.84375 -2.5625q-3.859375 -4.4375 -6.46875 -8.984375q-2.609375 -4.546875 -4.28125 -14.21875q-0.671875 -3.6875 -0.828125 -9.171875q-0.15625 -5.484375 0.15625 -10.625q0.328125 -5.140625 1.3125 -10.59375q0.984375 -5.453125 6.1875 -5.453125q3.859375 0 4.859375 3.390625q1.015625 3.375 1.34375 5.53125q0.34375 2.140625 0.671875 4.3125q0.34375 2.171875 0.34375 2.859375q0.578125 4.96875 1.03125 9.515625q0.453125 4.546875 1.046875 8.65625zm80.890625 -194.25q6.171875 -5.328125 10.21875 -11.25q1.765625 -3.59375 5.34375 -3.59375q5.078125 0 5.078125 6.90625q0 2.03125 -0.5 3.46875q-1.28125 5.515625 -3.203125 9.328125q-1.90625 3.8125 -8.5 8.671875q-2.5 2.140625 -6.5625 3.9999924q-4.0625 1.859375 -7.84375 3.25q-3.78125 1.375 -8.71875 1.65625q-4.921875 0.28125 -6.296875 -5.3437424q0 -3.09375 1.859375 -4.65625q1.875 -1.5625 3.390625 -2.578125q1.515625 -1.015625 2.859375 -1.84375q1.34375 -0.84375 2.140625 -1.25q2.859375 -1.4375 5.5625 -3.140625q2.71875 -1.703125 5.171875 -3.625z" fill-rule="nonzero"/></g></svg>